<?xml version='1.0' encoding='utf-8'?>
<svg xmlns="http://www.w3.org/2000/svg" width="32" height="32" version="1.1" viewBox="0 0 8.4667 8.4667"> <g transform="translate(0 -288.53)"> <g transform="matrix(.067747 0 0 .067747 130.77 371.52)" fill="#ffffff" stroke-width="14.761"> <g transform="translate(2.276 18.777)" stroke-width="14.761"> <g transform="translate(7.8902 102.57)"> <g transform="translate(23.671 -27.616)"> <path d="m-1901.4-1303.1c-12.742 0-24.965 5.0629-33.975 14.073s-14.073 21.232-14.073 33.975c0 12.742 5.0629 24.965 14.073 33.975 9.0102 9.0103 21.233 14.073 33.975 14.073s24.965-5.0628 33.975-14.073c9.0102-9.0102 14.073-21.233 14.073-33.975s-5.0629-24.964-14.073-33.975-21.233-14.073-33.975-14.073zm-2.6988 4.271v24.954c-7.4234-0.239-14.891-1.3939-22.42-3.4846 1.2972-3.3042 2.8808-6.3638 4.7244-9.0795 4.9023-7.2225 11.164-11.47 17.695-12.39zm5.4398 0c6.5155 0.9321 12.761 5.1774 17.653 12.384 1.8567 2.7352 3.4502 5.8188 4.7525 9.1506-7.4387 2.0653-14.901 3.2202-22.406 3.431zm-21.418 3.968c-1.832 1.7864-3.5405 3.8365-5.094 6.1251-2.0907 3.0802-3.8584 6.5116-5.2815 10.194-2.1763-0.6964-4.3574-1.4656-6.5447-2.3186 1.3528-1.866 2.8558-3.6358 4.5064-5.2864 3.637-3.637 7.8456-6.5701 12.414-8.7136zm37.352 0c4.5686 2.1435 8.7775 5.0764 12.414 8.7136 1.6654 1.6652 3.1802 3.4519 4.5423 5.3364-2.1825 0.8602-4.3665 1.6378-6.5522 2.3403-1.4281-3.7092-3.2055-7.165-5.3099-10.265-1.5535-2.2888-3.2624-4.3385-5.0947-6.1251zm-57.23 18.672c2.5964 1.0376 5.1908 1.9698 7.783 2.7973-1.3028 4.5825-2.111 9.451-2.3881 14.443h-10.633c0.5397-6.0768 2.3349-11.943 5.238-17.24zm77.136 0.051c2.8868 5.2835 4.672 11.132 5.21 17.189h-10.633c-0.2758-4.9641-1.0756-9.8066-2.3657-14.367 2.6037-0.8341 5.1996-1.7767 7.7886-2.8224zm-65.434 3.9245c8.0822 2.2538 16.139 3.4866 24.154 3.7277v9.5372h-26.372c0.2747-4.5964 1.0311-9.0713 2.2188-13.265zm53.725 0.071c1.1761 4.1729 1.9243 8.6235 2.1977 13.194h-26.329v-9.5238c8.0958-0.212 16.145-1.4441 24.132-3.67zm-70.793 19.106h10.682c0.1628 5.6414 1.0009 11.152 2.4641 16.303-2.6129 0.8082-5.219 1.7186-7.8173 2.7395-3.1773-5.8214-5.0201-12.327-5.3288-19.042zm14.763 0h26.458v11.77c-8.0988 0.1238-16.152 1.261-24.143 3.3989-1.3544-4.7705-2.152-9.905-2.3151-15.169zm31.898 0h26.415c-0.1702 5.4874-1.0296 10.833-2.4902 15.773-8.0049-2.3022-15.985-3.6074-23.925-3.9337zm30.497 0h10.682c-0.3216 6.9953-2.3064 13.764-5.7321 19.768-2.5383-1.0318-5.0749-1.9613-7.6092-2.7924 1.5838-5.342 2.4901-11.088 2.6593-16.976zm-35.937 17.164v24.592c-6.5308-0.9199-12.793-5.1674-17.695-12.39-1.8378-2.7075-3.4175-5.7568-4.7125-9.0494 7.4386-1.977 14.902-3.0308 22.408-3.1529zm5.4398 0.075c7.3288 0.3227 14.702 1.5347 22.134 3.6616-1.2502 3.0703-2.752 5.9195-4.4811 8.4668-4.8918 7.2069-11.138 11.452-17.653 12.384zm-31.796 4.2182c1.4238 3.6848 3.1922 7.1189 5.2844 10.201 1.554 2.2892 3.2629 4.3391 5.0954 6.1258-4.5688-2.1435-8.7779-5.0769-12.415-8.7142-1.6645-1.6645-3.1792-3.4501-4.5408-5.3336 2.1905-0.8385 4.3823-1.5997 6.5762-2.2793zm57.852 0.653c2.1083 0.6922 4.2215 1.4578 6.3401 2.2967-1.2318 1.6376-2.581 3.1973-4.0469 4.6632-3.6372 3.6373-7.8462 6.5707-12.415 8.7142 1.8327-1.7867 3.5416-3.8366 5.0954-6.1258 1.9681-2.8993 3.6489-6.1107 5.0266-9.5483z" color="#000000" color-rendering="auto" dominant-baseline="auto" enable-background="accumulate" fill="#ffffff" image-rendering="auto" shape-rendering="auto" solid-color="#000000" style="font-feature-settings:normal;font-variant-alternates:normal;font-variant-caps:normal;font-variant-ligatures:normal;font-variant-numeric:normal;font-variant-position:normal;isolation:auto;mix-blend-mode:normal;shape-padding:0;text-decoration-color:#000000;text-decoration-line:none;text-decoration-style:solid;text-indent:0;text-orientation:mixed;text-transform:none;white-space:normal"/> </g> </g> </g> </g> </g> </svg>
